<?xml version="1.0" encoding="UTF-8"?><svg xmlns="http://www.w3.org/2000/svg" xmlns:xlink="http://www.w3.org/1999/xlink" fill-opacity="1" color-rendering="auto" color-interpolation="auto" text-rendering="auto" stroke="black" stroke-linecap="square" width="1657" stroke-miterlimit="10" shape-rendering="auto" stroke-opacity="1" fill="black" stroke-dasharray="none" font-weight="normal" stroke-width="1" height="1145" font-family="'Dialog'" font-style="normal" stroke-linejoin="miter" font-size="12px" stroke-dashoffset="0" image-rendering="auto">
  <!--Generated by ySVG 2.5-->
  <defs id="genericDefs"/>
  <g>
    <defs id="defs1">
      <clipPath clipPathUnits="userSpaceOnUse" id="clipPath1">
        <path d="M0 0 L1657 0 L1657 1145 L0 1145 L0 0 Z"/>
      </clipPath>
      <clipPath clipPathUnits="userSpaceOnUse" id="clipPath2">
        <path d="M1256 -219 L2913 -219 L2913 926 L1256 926 L1256 -219 Z"/>
      </clipPath>
    </defs>
    <g fill="white" text-rendering="geometricPrecision" shape-rendering="geometricPrecision" transform="translate(-1256,219)" stroke="white">
      <rect x="1256" width="1657" height="1145" y="-219" clip-path="url(#clipPath2)" stroke="none"/>
    </g>
    <g fill="rgb(255,204,0)" text-rendering="geometricPrecision" shape-rendering="geometricPrecision" transform="matrix(1,0,0,1,-1256,219)" stroke="rgb(255,204,0)">
      <circle r="71.728" clip-path="url(#clipPath2)" cx="1816.728" cy="550.528" stroke="none"/>
    </g>
    <g text-rendering="geometricPrecision" stroke-miterlimit="1.45" shape-rendering="geometricPrecision" transform="matrix(1,0,0,1,-1256,219)" stroke-linecap="butt">
      <circle fill="none" r="71.728" clip-path="url(#clipPath2)" cx="1816.728" cy="550.528"/>
      <text x="1807.0541" xml:space="preserve" y="533.1901" clip-path="url(#clipPath2)" font-family="sans-serif" stroke="none">0x0</text>
      <text x="1774.0424" xml:space="preserve" y="547.8912" clip-path="url(#clipPath2)" font-family="sans-serif" stroke="none">InstructionFetch</text>
      <text x="1787.0414" xml:space="preserve" y="562.5924" clip-path="url(#clipPath2)" font-family="sans-serif" stroke="none">Add 0 to IP</text>
      <text x="1744.7015" xml:space="preserve" y="577.2936" clip-path="url(#clipPath2)" font-family="sans-serif" stroke="none">RAM MUX IP pass through</text>
    </g>
    <g fill="rgb(255,204,0)" text-rendering="geometricPrecision" shape-rendering="geometricPrecision" transform="matrix(1,0,0,1,-1256,219)" stroke="rgb(255,204,0)">
      <circle r="71.728" clip-path="url(#clipPath2)" cx="2127.8764" cy="550.528" stroke="none"/>
    </g>
    <g text-rendering="geometricPrecision" stroke-miterlimit="1.45" shape-rendering="geometricPrecision" transform="matrix(1,0,0,1,-1256,219)" stroke-linecap="butt">
      <circle fill="none" r="71.728" clip-path="url(#clipPath2)" cx="2127.8764" cy="550.528"/>
      <text x="2118.2026" xml:space="preserve" y="540.5406" clip-path="url(#clipPath2)" font-family="sans-serif" stroke="none">0x2</text>
      <text x="2112.2026" xml:space="preserve" y="555.2418" clip-path="url(#clipPath2)" font-family="sans-serif" stroke="none">Reset</text>
      <text x="2099.0337" xml:space="preserve" y="569.943" clip-path="url(#clipPath2)" font-family="sans-serif" stroke="none">-&gt; Clear IP</text>
    </g>
    <g fill="rgb(255,204,0)" text-rendering="geometricPrecision" shape-rendering="geometricPrecision" transform="matrix(1,0,0,1,-1256,219)" stroke="rgb(255,204,0)">
      <circle r="71.728" clip-path="url(#clipPath2)" cx="2127.8764" cy="775.5839" stroke="none"/>
    </g>
    <g text-rendering="geometricPrecision" stroke-miterlimit="1.45" shape-rendering="geometricPrecision" transform="matrix(1,0,0,1,-1256,219)" stroke-linecap="butt">
      <circle fill="none" r="71.728" clip-path="url(#clipPath2)" cx="2127.8764" cy="775.5839"/>
      <text x="2118.2026" xml:space="preserve" y="772.9471" clip-path="url(#clipPath2)" font-family="sans-serif" stroke="none">0x1</text>
      <text x="2115.2085" xml:space="preserve" y="787.6483" clip-path="url(#clipPath2)" font-family="sans-serif" stroke="none">END</text>
    </g>
    <g fill="rgb(255,204,0)" text-rendering="geometricPrecision" shape-rendering="geometricPrecision" transform="matrix(1,0,0,1,-1256,219)" stroke="rgb(255,204,0)">
      <circle r="71.728" clip-path="url(#clipPath2)" cx="2127.8764" cy="300" stroke="none"/>
    </g>
    <g text-rendering="geometricPrecision" stroke-miterlimit="1.45" shape-rendering="geometricPrecision" transform="matrix(1,0,0,1,-1256,219)" stroke-linecap="butt">
      <circle fill="none" r="71.728" clip-path="url(#clipPath2)" cx="2127.8764" cy="300"/>
      <text x="2118.2026" xml:space="preserve" y="290.0127" clip-path="url(#clipPath2)" font-family="sans-serif" stroke="none">0x3</text>
      <text x="2056.5356" xml:space="preserve" y="304.7139" clip-path="url(#clipPath2)" font-family="sans-serif" stroke="none">MOV_REGRAM/RAMREG</text>
      <text x="2067.8472" xml:space="preserve" y="319.415" clip-path="url(#clipPath2)" font-family="sans-serif" stroke="none">Add 1 to IP, read RAM</text>
    </g>
    <g fill="rgb(255,204,0)" text-rendering="geometricPrecision" shape-rendering="geometricPrecision" transform="matrix(1,0,0,1,-1256,219)" stroke="rgb(255,204,0)">
      <circle r="71.728" clip-path="url(#clipPath2)" cx="2363.4248" cy="300" stroke="none"/>
    </g>
    <g text-rendering="geometricPrecision" stroke-miterlimit="1.45" shape-rendering="geometricPrecision" transform="matrix(1,0,0,1,-1256,219)" stroke-linecap="butt">
      <circle fill="none" r="71.728" clip-path="url(#clipPath2)" cx="2363.4248" cy="300"/>
      <text x="2353.751" xml:space="preserve" y="290.0127" clip-path="url(#clipPath2)" font-family="sans-serif" stroke="none">0x4</text>
      <text x="2268.4004" xml:space="preserve" y="304.7139" clip-path="url(#clipPath2)" font-family="sans-serif" stroke="none">MOV_REGRAM/RAMREG Phase 2</text>
      <text x="2303.3955" xml:space="preserve" y="319.415" clip-path="url(#clipPath2)" font-family="sans-serif" stroke="none">Add 2 to IP, read RAM</text>
    </g>
    <g fill="rgb(255,204,0)" text-rendering="geometricPrecision" shape-rendering="geometricPrecision" transform="matrix(1,0,0,1,-1256,219)" stroke="rgb(255,204,0)">
      <path d="M2721.3372 244 L2866.3372 244 L2866.3372 259 L2881.3372 259 L2881.3372 356 L2721.3372 356 Z" stroke="none" clip-path="url(#clipPath2)"/>
      <path fill="white" d="M2866.3372 244 L2866.3372 259 L2881.3372 259 Z" clip-path="url(#clipPath2)" fill-rule="evenodd" stroke="none"/>
    </g>
    <g text-rendering="geometricPrecision" stroke-miterlimit="1.45" shape-rendering="geometricPrecision" transform="matrix(1,0,0,1,-1256,219)" stroke-linecap="butt">
      <path fill="none" d="M2721.3372 244 L2866.3372 244 L2866.3372 259 L2881.3372 259 L2881.3372 356 L2721.3372 356 Z" clip-path="url(#clipPath2)"/>
      <path fill="none" d="M2866.3372 244 L2866.3372 259 L2881.3372 259 Z" clip-path="url(#clipPath2)" fill-rule="evenodd"/>
      <text x="2707.6458" xml:space="preserve" y="304.7139" clip-path="url(#clipPath2)" font-family="sans-serif" stroke="none">RAM to RAM MUX must be synced</text>
    </g>
    <g fill="rgb(255,204,0)" text-rendering="geometricPrecision" shape-rendering="geometricPrecision" transform="matrix(1,0,0,1,-1256,219)" stroke="rgb(255,204,0)">
      <circle r="71.728" clip-path="url(#clipPath2)" cx="2587.5216" cy="300" stroke="none"/>
    </g>
    <g text-rendering="geometricPrecision" stroke-miterlimit="1.45" shape-rendering="geometricPrecision" transform="matrix(1,0,0,1,-1256,219)" stroke-linecap="butt">
      <circle fill="none" r="71.728" clip-path="url(#clipPath2)" cx="2587.5216" cy="300"/>
      <text x="2577.8477" xml:space="preserve" y="275.3115" clip-path="url(#clipPath2)" font-family="sans-serif" stroke="none">0x5</text>
      <text x="2520.499" xml:space="preserve" y="290.0127" clip-path="url(#clipPath2)" font-family="sans-serif" stroke="none">MOV_REGRAM Phase 3</text>
      <text x="2522.8252" xml:space="preserve" y="304.7139" clip-path="url(#clipPath2)" font-family="sans-serif" stroke="none">Apply read Addr to RAM</text>
      <text x="2538.1738" xml:space="preserve" y="319.415" clip-path="url(#clipPath2)" font-family="sans-serif" stroke="none">Enable RAM Write</text>
      <text x="2533.8262" xml:space="preserve" y="334.1162" clip-path="url(#clipPath2)" font-family="sans-serif" stroke="none">Add 3 to IP, store IP</text>
    </g>
    <g fill="rgb(255,204,0)" text-rendering="geometricPrecision" shape-rendering="geometricPrecision" transform="matrix(1,0,0,1,-1256,219)" stroke="rgb(255,204,0)">
      <circle r="71.728" clip-path="url(#clipPath2)" cx="2587.5216" cy="78.8" stroke="none"/>
    </g>
    <g text-rendering="geometricPrecision" stroke-miterlimit="1.45" shape-rendering="geometricPrecision" transform="matrix(1,0,0,1,-1256,219)" stroke-linecap="butt">
      <circle fill="none" r="71.728" clip-path="url(#clipPath2)" cx="2587.5216" cy="78.8"/>
      <text x="2577.8477" xml:space="preserve" y="46.7609" clip-path="url(#clipPath2)" font-family="sans-serif" stroke="none">0x6</text>
      <text x="2520.499" xml:space="preserve" y="61.4621" clip-path="url(#clipPath2)" font-family="sans-serif" stroke="none">MOV_RAMREG Phase 3</text>
      <text x="2522.8252" xml:space="preserve" y="76.1633" clip-path="url(#clipPath2)" font-family="sans-serif" stroke="none">Apply read Addr to RAM</text>
      <text x="2489.1426" xml:space="preserve" y="90.8645" clip-path="url(#clipPath2)" font-family="sans-serif" stroke="none">Enable RAM ALU MUX pass through</text>
      <text x="2536.498" xml:space="preserve" y="105.5656" clip-path="url(#clipPath2)" font-family="sans-serif" stroke="none">Enable RegA Write</text>
      <text x="2533.8262" xml:space="preserve" y="120.2668" clip-path="url(#clipPath2)" font-family="sans-serif" stroke="none">Add 3 to IP, store IP</text>
    </g>
    <g fill="rgb(255,204,0)" text-rendering="geometricPrecision" shape-rendering="geometricPrecision" transform="matrix(1,0,0,1,-1256,219)" stroke="rgb(255,204,0)">
      <circle r="71.728" clip-path="url(#clipPath2)" cx="1548.8" cy="801.0559" stroke="none"/>
    </g>
    <g text-rendering="geometricPrecision" stroke-miterlimit="1.45" shape-rendering="geometricPrecision" transform="matrix(1,0,0,1,-1256,219)" stroke-linecap="butt">
      <circle fill="none" r="71.728" clip-path="url(#clipPath2)" cx="1548.8" cy="801.0559"/>
      <text x="1538.1301" xml:space="preserve" y="776.3674" clip-path="url(#clipPath2)" font-family="sans-serif" stroke="none">0xC</text>
      <text x="1505.7922" xml:space="preserve" y="791.0686" clip-path="url(#clipPath2)" font-family="sans-serif" stroke="none">MOV_REGREG</text>
      <text x="1457.7454" xml:space="preserve" y="805.7698" clip-path="url(#clipPath2)" font-family="sans-serif" stroke="none">Enable Reg Alu Mux pass through</text>
      <text x="1482.4309" xml:space="preserve" y="820.4709" clip-path="url(#clipPath2)" font-family="sans-serif" stroke="none">Enable write RegA RegB</text>
      <text x="1495.1047" xml:space="preserve" y="835.1721" clip-path="url(#clipPath2)" font-family="sans-serif" stroke="none">Add 1 to IP, store IP</text>
    </g>
    <g fill="rgb(255,204,0)" text-rendering="geometricPrecision" shape-rendering="geometricPrecision" transform="matrix(1,0,0,1,-1256,219)" stroke="rgb(255,204,0)">
      <path d="M1324.8 829.2 L1420.2 829.2 L1420.2 844.2 L1435.2 844.2 L1435.2 910.8 L1324.8 910.8 Z" stroke="none" clip-path="url(#clipPath2)"/>
      <path fill="white" d="M1420.2 829.2 L1420.2 844.2 L1435.2 844.2 Z" clip-path="url(#clipPath2)" fill-rule="evenodd" stroke="none"/>
    </g>
    <g text-rendering="geometricPrecision" stroke-miterlimit="1.45" shape-rendering="geometricPrecision" transform="matrix(1,0,0,1,-1256,219)" stroke-linecap="butt">
      <path fill="none" d="M1324.8 829.2 L1420.2 829.2 L1420.2 844.2 L1435.2 844.2 L1435.2 910.8 L1324.8 910.8 Z" clip-path="url(#clipPath2)"/>
      <path fill="none" d="M1420.2 829.2 L1420.2 844.2 L1435.2 844.2 Z" clip-path="url(#clipPath2)" fill-rule="evenodd"/>
      <text x="1330.3125" xml:space="preserve" y="860.0127" clip-path="url(#clipPath2)" font-family="sans-serif" stroke="none">RegA, RegB must </text>
      <text x="1336.9775" xml:space="preserve" y="874.7139" clip-path="url(#clipPath2)" font-family="sans-serif" stroke="none">be stored for 1C</text>
      <text x="1352.6572" xml:space="preserve" y="889.415" clip-path="url(#clipPath2)" font-family="sans-serif" stroke="none">(4 bit reg) </text>
    </g>
    <g fill="rgb(255,204,0)" text-rendering="geometricPrecision" shape-rendering="geometricPrecision" transform="matrix(1,0,0,1,-1256,219)" stroke="rgb(255,204,0)">
      <circle r="71.728" clip-path="url(#clipPath2)" cx="1816.728" cy="300" stroke="none"/>
    </g>
    <g text-rendering="geometricPrecision" stroke-miterlimit="1.45" shape-rendering="geometricPrecision" transform="matrix(1,0,0,1,-1256,219)" stroke-linecap="butt">
      <circle fill="none" r="71.728" clip-path="url(#clipPath2)" cx="1816.728" cy="300"/>
      <text x="1807.0541" xml:space="preserve" y="290.0127" clip-path="url(#clipPath2)" font-family="sans-serif" stroke="none">0x7</text>
      <text x="1802.056" xml:space="preserve" y="304.7139" clip-path="url(#clipPath2)" font-family="sans-serif" stroke="none">Jump</text>
      <text x="1756.6986" xml:space="preserve" y="319.415" clip-path="url(#clipPath2)" font-family="sans-serif" stroke="none">Add 1 to IP, read RAM</text>
    </g>
    <g fill="rgb(255,204,0)" text-rendering="geometricPrecision" shape-rendering="geometricPrecision" transform="matrix(1,0,0,1,-1256,219)" stroke="rgb(255,204,0)">
      <circle r="71.728" clip-path="url(#clipPath2)" cx="1816.728" cy="78.8" stroke="none"/>
    </g>
    <g text-rendering="geometricPrecision" stroke-miterlimit="1.45" shape-rendering="geometricPrecision" transform="matrix(1,0,0,1,-1256,219)" stroke-linecap="butt">
      <circle fill="none" r="71.728" clip-path="url(#clipPath2)" cx="1816.728" cy="78.8"/>
      <text x="1807.0541" xml:space="preserve" y="68.8127" clip-path="url(#clipPath2)" font-family="sans-serif" stroke="none">0x8</text>
      <text x="1778.3724" xml:space="preserve" y="83.5139" clip-path="url(#clipPath2)" font-family="sans-serif" stroke="none">Jump Phase 2</text>
      <text x="1756.6986" xml:space="preserve" y="98.215" clip-path="url(#clipPath2)" font-family="sans-serif" stroke="none">Add 2 to IP, read RAM</text>
    </g>
    <g fill="rgb(255,204,0)" text-rendering="geometricPrecision" shape-rendering="geometricPrecision" transform="matrix(1,0,0,1,-1256,219)" stroke="rgb(255,204,0)">
      <path d="M2698.8743 -8.8161 L2843.8743 -8.8161 L2843.8743 6.1839 L2858.8743 6.1839 L2858.8743 103.1839 L2698.8743 103.1839 Z" stroke="none" clip-path="url(#clipPath2)"/>
      <path fill="white" d="M2843.8743 -8.8161 L2843.8743 6.1839 L2858.8743 6.1839 Z" clip-path="url(#clipPath2)" fill-rule="evenodd" stroke="none"/>
    </g>
    <g text-rendering="geometricPrecision" stroke-miterlimit="1.45" shape-rendering="geometricPrecision" transform="matrix(1,0,0,1,-1256,219)" stroke-linecap="butt">
      <path fill="none" d="M2698.8743 -8.8161 L2843.8743 -8.8161 L2843.8743 6.1839 L2858.8743 6.1839 L2858.8743 103.1839 L2698.8743 103.1839 Z" clip-path="url(#clipPath2)"/>
      <path fill="none" d="M2843.8743 -8.8161 L2843.8743 6.1839 L2858.8743 6.1839 Z" clip-path="url(#clipPath2)" fill-rule="evenodd"/>
      <text x="2685.1829" xml:space="preserve" y="51.8978" clip-path="url(#clipPath2)" font-family="sans-serif" stroke="none">RAM to RAM MUX must be synced</text>
    </g>
    <g fill="rgb(255,204,0)" text-rendering="geometricPrecision" shape-rendering="geometricPrecision" transform="matrix(1,0,0,1,-1256,219)" stroke="rgb(255,204,0)">
      <circle r="71.728" clip-path="url(#clipPath2)" cx="1548.8" cy="300" stroke="none"/>
    </g>
    <g text-rendering="geometricPrecision" stroke-miterlimit="1.45" shape-rendering="geometricPrecision" transform="matrix(1,0,0,1,-1256,219)" stroke-linecap="butt">
      <circle fill="none" r="71.728" clip-path="url(#clipPath2)" cx="1548.8" cy="300"/>
      <text x="1538.4612" xml:space="preserve" y="290.0127" clip-path="url(#clipPath2)" font-family="sans-serif" stroke="none">0xA</text>
      <text x="1526.4583" xml:space="preserve" y="304.7139" clip-path="url(#clipPath2)" font-family="sans-serif" stroke="none">NoJump</text>
      <text x="1495.1047" xml:space="preserve" y="319.415" clip-path="url(#clipPath2)" font-family="sans-serif" stroke="none">Add 3 to IP, store IP</text>
    </g>
    <g fill="rgb(255,204,0)" text-rendering="geometricPrecision" shape-rendering="geometricPrecision" transform="matrix(1,0,0,1,-1256,219)" stroke="rgb(255,204,0)">
      <circle r="71.728" clip-path="url(#clipPath2)" cx="1548.8" cy="550.528" stroke="none"/>
    </g>
    <g text-rendering="geometricPrecision" stroke-miterlimit="1.45" shape-rendering="geometricPrecision" transform="matrix(1,0,0,1,-1256,219)" stroke-linecap="butt">
      <circle fill="none" r="71.728" clip-path="url(#clipPath2)" cx="1548.8" cy="550.528"/>
      <text x="1538.4612" xml:space="preserve" y="533.1901" clip-path="url(#clipPath2)" font-family="sans-serif" stroke="none">0xB</text>
      <text x="1514.7864" xml:space="preserve" y="547.8912" clip-path="url(#clipPath2)" font-family="sans-serif" stroke="none">Any ALU OP</text>
      <text x="1495.7786" xml:space="preserve" y="562.5924" clip-path="url(#clipPath2)" font-family="sans-serif" stroke="none">ALU OP (S2,S1,S0)</text>
      <text x="1495.1047" xml:space="preserve" y="577.2936" clip-path="url(#clipPath2)" font-family="sans-serif" stroke="none">Add 1 to IP, store IP</text>
    </g>
    <g fill="rgb(255,204,0)" text-rendering="geometricPrecision" shape-rendering="geometricPrecision" transform="matrix(1,0,0,1,-1256,219)" stroke="rgb(255,204,0)">
      <path d="M1271.2 494.528 L1451.4 494.528 L1451.4 509.528 L1466.4 509.528 L1466.4 606.528 L1271.2 606.528 Z" stroke="none" clip-path="url(#clipPath2)"/>
      <path fill="white" d="M1451.4 494.528 L1451.4 509.528 L1466.4 509.528 Z" clip-path="url(#clipPath2)" fill-rule="evenodd" stroke="none"/>
    </g>
    <g text-rendering="geometricPrecision" stroke-miterlimit="1.45" shape-rendering="geometricPrecision" transform="matrix(1,0,0,1,-1256,219)" stroke-linecap="butt">
      <path fill="none" d="M1271.2 494.528 L1451.4 494.528 L1451.4 509.528 L1466.4 509.528 L1466.4 606.528 L1271.2 606.528 Z" clip-path="url(#clipPath2)"/>
      <path fill="none" d="M1451.4 494.528 L1451.4 509.528 L1466.4 509.528 Z" clip-path="url(#clipPath2)" fill-rule="evenodd"/>
      <text x="1284.4309" xml:space="preserve" y="555.2418" clip-path="url(#clipPath2)" font-family="sans-serif" stroke="none">ALU must NOT be input synced</text>
    </g>
    <g fill="rgb(255,204,0)" text-rendering="geometricPrecision" shape-rendering="geometricPrecision" transform="matrix(1,0,0,1,-1256,219)" stroke="rgb(255,204,0)">
      <circle r="71.728" clip-path="url(#clipPath2)" cx="1816.728" cy="-131.8613" stroke="none"/>
    </g>
    <g text-rendering="geometricPrecision" stroke-miterlimit="1.45" shape-rendering="geometricPrecision" transform="matrix(1,0,0,1,-1256,219)" stroke-linecap="butt">
      <circle fill="none" r="71.728" clip-path="url(#clipPath2)" cx="1816.728" cy="-131.8613"/>
      <text x="1807.0541" xml:space="preserve" y="-149.1992" clip-path="url(#clipPath2)" font-family="sans-serif" stroke="none">0x9</text>
      <text x="1778.3724" xml:space="preserve" y="-134.498" clip-path="url(#clipPath2)" font-family="sans-serif" stroke="none">Jump Phase 3</text>
      <text x="1724.3519" xml:space="preserve" y="-119.7968" clip-path="url(#clipPath2)" font-family="sans-serif" stroke="none">Enable IP MUX RAM pass through</text>
      <text x="1776.3744" xml:space="preserve" y="-105.0957" clip-path="url(#clipPath2)" font-family="sans-serif" stroke="none">Enable IP write</text>
      <path fill="none" d="M1888.3999 548.7623 L1894.515 548.6117 L1972.3022 547.9729 L2048.2061 548.5963 L2048.3059 548.5987" clip-path="url(#clipPath2)"/>
      <path d="M2056.3042 548.7644 L2044.4103 543.5169 L2047.3062 548.578 L2044.2032 553.5148 Z" clip-path="url(#clipPath2)" stroke="none"/>
      <text x="1962.0645" xml:space="preserve" y="566.0559" clip-path="url(#clipPath2)" font-family="sans-serif" stroke="none">0100</text>
      <path fill="none" d="M1873.282 594.6358 L1892.4785 609.6077 L1969.5868 666.8102 L2048.0527 722.1356 L2061.634 731.2294" clip-path="url(#clipPath2)"/>
      <path d="M2068.2815 735.6804 L2061.0923 724.8492 L2060.8032 730.673 L2055.5283 733.1586 Z" clip-path="url(#clipPath2)" stroke="none"/>
      <text x="1902.1683" xml:space="preserve" y="668.4881" clip-path="url(#clipPath2)" font-family="sans-serif" stroke="none">1111</text>
      <path fill="none" d="M2199.5986 775.5839 L2223.4438 775.5839 L2241.77 776.2288 L2257.6526 778.1637 L2271.0918 781.3885 L2276.8953 783.4847 L2282.0876 785.9033 L2286.6692 788.6443 L2290.6399 791.7079 L2293.9995 795.094 L2296.7485 798.8025 L2298.8865 802.8335 L2300.4138 807.187 L2301.3301 811.863 L2301.6355 816.8615 L2301.6355 826.0342 L2301.0247 835.7087 L2299.1919 844.0932 L2296.1377 851.1877 L2291.8616 856.9924 L2286.3635 861.5071 L2279.644 864.732 L2271.7026 866.6669 L2262.5396 867.3118 L2253.8516 867.3118 L2244.6885 866.6669 L2236.7471 864.732 L2230.0276 861.5071 L2224.5298 856.9924 L2220.2537 851.1877 L2217.1992 844.0932 L2215.3667 835.7087 L2214.7559 826.0342 L2214.7559 816.8615 L2214.145 807.187 L2212.3125 798.8025 L2209.2581 791.7079 L2205.4365 786.5204 L2205.3589 786.4573" clip-path="url(#clipPath2)"/>
      <path d="M2199.2766 781.2606 L2205.1519 792.8571 L2206.1191 787.1069 L2211.6479 785.2544 Z" clip-path="url(#clipPath2)" stroke="none"/>
      <text x="2236.7637" xml:space="preserve" y="826.1617" clip-path="url(#clipPath2)" font-family="sans-serif" stroke="none">----</text>
      <path fill="none" d="M1872.9244 505.9454 L1973.2072 426.3878 L2066.135 350.4518" clip-path="url(#clipPath2)"/>
      <path d="M2072.3298 345.3898 L2059.8738 349.1111 L2065.3606 351.0846 L2066.2014 356.8546 Z" clip-path="url(#clipPath2)" stroke="none"/>
      <text x="1991.6616" xml:space="preserve" y="405.3899" clip-path="url(#clipPath2)" font-family="sans-serif" stroke="none">100x</text>
      <path fill="none" d="M2199.6165 300 L2283.7188 300" clip-path="url(#clipPath2)"/>
      <path d="M2291.7188 300 L2279.7188 295 L2282.7188 300 L2279.7188 305 Z" clip-path="url(#clipPath2)" stroke="none"/>
      <path fill="none" d="M2435.1785 300 L2507.7759 300" clip-path="url(#clipPath2)"/>
      <path d="M2515.7759 300 L2503.7759 295 L2506.7759 300 L2503.7759 305 Z" clip-path="url(#clipPath2)" stroke="none"/>
      <text x="2452.2183" xml:space="preserve" y="334.7139" clip-path="url(#clipPath2)" font-family="sans-serif" stroke="none">x = 0</text>
      <path fill="none" d="M2417.3091 252.6545 L2422.6599 247.953 L2479.7544 193.7374 L2534.0957 137.9815 L2534.1626 137.9073" clip-path="url(#clipPath2)"/>
      <path d="M2539.5464 131.9899 L2527.7725 137.5012 L2533.4897 138.647 L2535.1692 144.2308 Z" clip-path="url(#clipPath2)" stroke="none"/>
      <text x="2445.489" xml:space="preserve" y="177.0845" clip-path="url(#clipPath2)" font-family="sans-serif" stroke="none">x = 1</text>
      <path fill="none" d="M1764.3656 599.4898 L1607.0349 746.603" clip-path="url(#clipPath2)"/>
      <path d="M1601.1915 752.0669 L1613.3716 747.5231 L1607.7654 745.92 L1606.5416 740.2189 Z" clip-path="url(#clipPath2)" stroke="none"/>
      <text x="1669.203" xml:space="preserve" y="680.2777" clip-path="url(#clipPath2)" font-family="sans-serif" stroke="none">1010</text>
      <path fill="none" d="M1816.7279 478.8131 L1816.7279 379.7261" clip-path="url(#clipPath2)"/>
      <path d="M1816.7279 371.7261 L1811.7279 383.7261 L1816.7279 380.7261 L1821.7279 383.7261 Z" clip-path="url(#clipPath2)" stroke="none"/>
      <text x="1773.3802" xml:space="preserve" y="415.2767" clip-path="url(#clipPath2)" font-family="sans-serif" stroke="none">1011</text>
      <text x="1774.7191" xml:space="preserve" y="429.9778" clip-path="url(#clipPath2)" font-family="sans-serif" stroke="none">110-</text>
      <text x="1773.3802" xml:space="preserve" y="444.679" clip-path="url(#clipPath2)" font-family="sans-serif" stroke="none">1110</text>
      <path fill="none" d="M1816.7279 228.2558 L1816.7279 158.4994" clip-path="url(#clipPath2)"/>
      <path d="M1816.7279 150.4994 L1811.7279 162.4994 L1816.7279 159.4994 L1821.7279 162.4994 Z" clip-path="url(#clipPath2)" stroke="none"/>
      <text x="1835.9072" xml:space="preserve" y="206.403" clip-path="url(#clipPath2)" font-family="sans-serif" stroke="none">else</text>
      <path fill="none" d="M1745.0035 300 L1628.5082 300" clip-path="url(#clipPath2)"/>
      <path d="M1620.5082 300 L1632.5082 305 L1629.5082 300 L1632.5082 295 Z" clip-path="url(#clipPath2)" stroke="none"/>
      <text x="1661.3064" xml:space="preserve" y="260.0127" clip-path="url(#clipPath2)" font-family="sans-serif" stroke="none">1100 &amp; !Carry</text>
      <text x="1663.6355" xml:space="preserve" y="274.7139" clip-path="url(#clipPath2)" font-family="sans-serif" stroke="none">1101 &amp; !Zero</text>
      <text x="1652.3005" xml:space="preserve" y="289.415" clip-path="url(#clipPath2)" font-family="sans-serif" stroke="none">1110 &amp; !Overflow</text>
      <path fill="none" d="M1745.0035 550.528 L1628.5082 550.528" clip-path="url(#clipPath2)"/>
      <path d="M1620.5082 550.528 L1632.5082 555.528 L1629.5082 550.528 L1632.5082 545.528 Z" clip-path="url(#clipPath2)" stroke="none"/>
      <text x="1651.0823" xml:space="preserve" y="585.2418" clip-path="url(#clipPath2)" font-family="sans-serif" stroke="none">0--- &amp; !0100</text>
      <path fill="none" d="M1816.7279 7.0795 L1816.7279 -52.1182" clip-path="url(#clipPath2)"/>
      <path d="M1816.7279 -60.1182 L1811.7279 -48.1182 L1816.7279 -51.1182 L1821.7279 -48.1182 Z" clip-path="url(#clipPath2)" stroke="none"/>
    </g>
  </g>
</svg>
